<?xml version="1.0" standalone="no"?>
<!DOCTYPE svg PUBLIC "-//W3C//DTD SVG 20010904//EN"
 "http://www.w3.org/TR/2001/REC-SVG-20010904/DTD/svg10.dtd">
<svg version="1.0" xmlns="http://www.w3.org/2000/svg"
 width="512.000000pt" height="512.000000pt" viewBox="0 0 512.000000 512.000000"
 preserveAspectRatio="xMidYMid meet">
<metadata>
Created by potrace 1.14, written by Peter Selinger 2001-2017
</metadata>
<g transform="translate(0.000000,512.000000) scale(0.100000,-0.100000)"
fill="#000000" stroke="none">
<path d="M637 5093 c-8 -16 -17 -41 -21 -58 -4 -16 -24 -48 -45 -70 -20 -22
-43 -49 -51 -61 -16 -22 -118 -96 -190 -137 -29 -17 -54 -24 -68 -21 -15 4
-24 1 -28 -10 -3 -8 -21 -25 -40 -37 -34 -21 -43 -42 -23 -54 5 -4 18 3 28 14
10 12 23 21 30 21 6 0 11 6 11 13 0 9 3 8 9 -2 6 -9 11 -10 15 -2 4 6 25 11
47 11 21 0 39 5 39 10 0 6 26 10 58 10 31 0 73 5 92 10 19 6 73 16 120 22 47
5 114 14 150 19 36 5 85 12 110 15 25 3 49 10 55 15 5 5 17 9 27 9 17 0 18 12
18 155 0 131 -2 155 -15 155 -13 0 -15 -22 -15 -139 0 -123 -2 -140 -17 -146
-30 -13 -163 -35 -323 -54 -47 -5 -99 -15 -116 -21 -18 -6 -53 -10 -80 -8
l-48 3 80 53 c49 31 94 71 113 97 18 25 41 50 51 55 11 6 25 29 32 53 6 23 18
52 26 64 14 22 10 43 -8 43 -5 0 -16 -12 -23 -27z"/>
<path d="M1060 4963 c0 -87 -3 -168 -6 -180 -4 -16 -16 -22 -47 -26 -65 -9
-110 -18 -132 -26 -11 -5 -33 -14 -48 -20 -15 -6 -50 -11 -77 -11 -33 0 -64
-8 -94 -24 -50 -26 -104 -34 -291 -42 -66 -3 -124 -9 -130 -15 -5 -5 -16 -9
-25 -9 -9 0 -35 -9 -59 -21 -23 -11 -52 -19 -64 -17 -16 3 -8 9 30 22 67 22
81 41 27 34 -63 -9 -144 -47 -144 -69 0 -11 5 -16 14 -13 7 3 16 -2 19 -10 7
-19 85 -22 117 -6 11 6 29 15 40 20 11 6 29 10 39 10 11 0 23 5 26 10 4 6 57
10 125 10 68 0 121 4 125 10 3 6 32 10 64 10 35 0 65 6 77 15 10 8 29 15 41
15 12 0 25 5 28 10 3 6 30 10 60 10 30 0 57 5 60 10 3 6 17 10 30 10 13 0 27
5 30 10 3 6 21 10 40 10 19 0 36 4 39 9 3 4 28 11 56 13 28 3 57 11 63 17 8 8
13 72 15 201 l4 190 -26 0 -26 0 0 -157z"/>
<path d="M1178 4897 c-2 -167 -6 -228 -16 -240 -10 -12 -39 -17 -115 -21 -152
-7 -247 -20 -291 -39 -21 -9 -60 -17 -86 -17 -27 0 -69 -9 -95 -20 -32 -14
-69 -20 -119 -20 -44 0 -77 -5 -84 -12 -8 -8 -50 -15 -100 -18 -65 -4 -87 -8
-87 -19 0 -18 -76 -41 -137 -41 -36 0 -48 -4 -48 -15 0 -22 79 -20 165 5 44
13 100 20 152 20 45 0 85 5 88 10 3 6 20 10 37 10 23 0 29 4 24 15 -4 12 4 15
39 15 25 0 54 5 65 10 11 6 29 15 40 20 11 6 42 10 70 10 28 0 60 5 73 12 12
6 30 15 39 20 10 4 49 8 87 8 39 0 73 5 76 10 3 6 49 10 103 10 53 0 102 4
107 8 31 23 40 80 43 290 2 180 1 212 -12 212 -12 0 -15 -36 -18 -223z"/>
<path d="M2418 5103 c34 -8 62 -19 62 -24 0 -5 13 -9 29 -9 17 0 33 -4 36 -10
3 -5 14 -10 23 -10 10 0 23 -9 30 -20 7 -11 23 -20 37 -20 15 0 31 -10 41 -25
9 -14 25 -25 35 -25 11 0 19 -4 19 -10 0 -5 5 -10 11 -10 12 0 138 -126 167
-168 33 -46 72 -120 72 -136 0 -9 4 -16 9 -16 11 0 68 -96 117 -200 66 -137
74 -190 74 -460 0 -136 -5 -251 -11 -274 -7 -26 -7 -42 0 -49 6 -6 5 -17 -3
-31 -23 -36 -29 -76 -11 -76 9 0 18 8 21 18 3 9 13 30 21 46 12 21 12 30 4 36
-9 5 -9 18 -1 51 18 73 8 537 -13 629 -10 41 -23 80 -29 87 -6 8 -31 53 -56
101 -69 136 -73 142 -83 142 -5 0 -9 9 -9 19 0 11 -5 23 -10 26 -6 3 -19 26
-31 51 -11 25 -51 78 -89 117 -38 40 -75 79 -82 89 -7 9 -29 25 -48 35 -19 10
-45 28 -58 41 -12 12 -31 22 -42 22 -11 0 -23 7 -25 15 -15 49 -15 48 -30 35
-11 -9 -21 -7 -46 11 -18 13 -29 18 -25 11 4 -7 1 -12 -8 -12 -8 0 -18 5 -21
10 -3 6 -36 10 -73 9 l-67 -1 63 -15z"/>
<path d="M955 4481 c-3 -6 -15 -11 -27 -11 -11 0 -22 -8 -25 -20 -3 -13 -14
-20 -29 -20 -13 0 -43 -13 -66 -30 -22 -16 -46 -30 -52 -30 -13 0 -84 -71
-109 -109 -9 -13 -36 -45 -61 -71 -26 -27 -46 -58 -48 -74 l-3 -28 -38 37
c-30 29 -49 39 -83 43 -24 2 -47 9 -50 13 -9 15 -176 10 -204 -6 -23 -13 -16
-14 83 -15 64 0 107 -4 107 -10 0 -5 18 -10 40 -10 31 0 47 -6 64 -25 13 -14
26 -25 29 -25 12 0 55 -50 68 -78 12 -27 14 -29 26 -14 7 10 13 25 13 35 0 19
8 21 29 8 11 -7 12 -13 4 -23 -6 -7 -13 -31 -17 -54 -5 -36 -39 -125 -67 -176
-5 -10 -9 -30 -9 -46 0 -16 -8 -37 -18 -48 -42 -45 -102 -163 -128 -249 -19
-66 -20 -66 -102 -49 -27 5 -20 24 9 24 10 0 19 5 19 10 0 6 12 10 26 10 34 0
26 24 -10 28 -15 2 -34 -2 -42 -9 -17 -14 -81 -27 -187 -37 -37 -4 -68 -11
-70 -17 -3 -16 142 -18 161 -3 10 7 7 1 -5 -13 -13 -14 -23 -37 -23 -52 0 -15
-5 -26 -12 -24 -6 1 -22 -16 -36 -38 -13 -22 -20 -31 -16 -20 15 41 17 97 3
106 -15 9 -59 -26 -59 -47 0 -6 -7 -17 -15 -24 -17 -14 -20 -66 -5 -75 6 -4 8
-15 5 -24 -7 -23 4 -51 20 -51 6 0 20 9 30 20 10 11 21 20 25 20 4 0 10 -9 13
-20 4 -16 14 -20 46 -20 22 0 44 6 48 13 21 32 83 49 83 22 0 -18 16 -20 26
-4 3 6 1 15 -5 19 -9 5 -8 10 4 20 13 11 15 6 15 -42 0 -31 3 -76 6 -102 7
-45 6 -46 -20 -46 -14 0 -35 -5 -46 -12 -23 -15 -84 3 -113 33 -24 25 -33 24
-54 -7 -16 -25 -16 -27 8 -45 13 -10 32 -19 41 -19 9 0 20 -4 23 -10 8 -12
112 -13 119 -1 7 11 55 21 60 12 2 -3 7 -21 11 -38 l7 -33 -86 0 c-76 0 -85 2
-91 20 -3 11 -14 20 -24 20 -10 0 -21 3 -25 8 -4 4 -15 7 -24 8 -10 1 -30 2
-45 3 -23 1 -27 5 -22 20 7 24 -9 35 -25 16 -15 -18 -10 -46 10 -55 8 -4 25
-12 37 -18 13 -7 32 -12 43 -12 11 0 20 -4 20 -10 0 -5 7 -10 15 -10 29 0 15
-145 -21 -227 -8 -17 -14 -38 -14 -45 0 -24 -30 -79 -77 -140 -25 -33 -43 -67
-43 -82 0 -35 15 -33 30 4 7 17 16 30 20 30 4 0 15 16 26 35 10 19 21 35 24
35 8 0 47 81 54 110 3 14 14 57 25 95 11 39 20 91 20 118 l1 47 95 0 c84 0 95
-2 95 -17 0 -10 7 -31 16 -48 20 -38 53 -135 54 -156 0 -9 7 -22 15 -29 8 -7
15 -20 15 -29 0 -10 13 -44 29 -77 15 -32 40 -92 55 -132 14 -40 39 -87 56
-105 16 -18 30 -42 30 -54 0 -12 9 -45 20 -73 23 -59 25 -69 8 -52 -7 7 -25
12 -41 12 -37 0 -95 27 -108 51 -6 12 -21 19 -39 19 -16 0 -32 5 -35 10 -3 6
-16 10 -28 10 -40 0 -47 38 -48 264 -1 210 -15 346 -34 336 -5 -3 -9 -31 -7
-62 2 -34 -3 -67 -10 -80 -12 -21 -14 -15 -18 52 -3 43 -9 74 -15 73 -13 -4
-19 -162 -6 -188 5 -11 12 -28 15 -38 9 -28 26 -10 26 28 0 19 4 37 10 40 12
8 14 -67 1 -81 -10 -10 -31 -170 -31 -230 0 -21 7 -48 15 -58 8 -11 15 -35 15
-53 0 -19 9 -52 20 -73 l20 -40 -25 0 c-21 0 -25 5 -25 30 0 17 -7 47 -15 67
-11 25 -15 72 -15 160 0 72 -6 155 -15 198 -9 41 -19 116 -23 167 -4 51 -11
93 -17 93 -18 0 -16 -114 4 -234 14 -77 21 -163 21 -244 0 -91 4 -132 15 -153
8 -16 15 -41 15 -56 0 -44 10 -58 41 -58 16 0 29 -4 29 -10 0 -5 9 -10 20 -10
11 0 20 -4 20 -10 0 -5 9 -10 20 -10 11 0 20 -4 20 -10 0 -5 11 -10 24 -10 13
0 26 -7 30 -15 3 -8 16 -15 28 -15 13 0 34 -9 48 -20 30 -23 50 -26 50 -6 0
20 -53 56 -81 56 -12 0 -19 3 -16 7 9 8 -22 43 -38 43 -18 0 -65 24 -65 33 0
5 -13 22 -30 37 -18 17 -30 38 -29 52 0 12 3 17 6 11 2 -7 18 -13 35 -13 24 0
28 -3 19 -13 -13 -17 -5 -27 24 -27 25 0 69 -40 91 -81 18 -36 83 -75 90 -54
8 20 -4 35 -26 35 -18 0 -65 48 -55 58 6 7 55 -27 55 -38 0 -6 9 -10 20 -10
23 0 26 10 8 28 -9 9 -8 12 4 12 9 0 30 -13 48 -30 21 -19 43 -30 62 -30 16 0
36 -7 45 -15 14 -14 13 -23 -9 -85 l-25 -69 26 -3 c17 -2 27 -11 31 -27 6 -25
35 -50 46 -39 10 10 -28 88 -43 88 -14 0 -10 37 8 72 5 9 9 31 9 48 0 28 3 31
28 28 24 -3 27 -7 30 -48 3 -47 -12 -47 -21 0 -3 16 -5 10 -6 -17 -1 -31 3
-43 13 -43 10 0 17 -17 21 -55 7 -52 9 -55 36 -55 26 0 28 -3 31 -42 2 -32 8
-44 21 -46 15 -3 17 1 11 25 -4 15 -21 55 -37 87 -16 32 -32 80 -35 105 l-5
46 20 -23 c11 -12 28 -22 37 -22 9 0 16 -4 16 -10 0 -5 7 -10 15 -10 8 0 15
-4 15 -10 0 -5 9 -10 20 -10 11 0 20 -3 20 -8 0 -9 74 -42 94 -42 8 0 17 -6
19 -12 3 -7 6 -1 6 13 1 19 -5 29 -21 34 -21 6 -21 8 -4 12 10 3 23 0 29 -6 6
-6 28 -11 48 -11 20 0 42 -7 49 -15 7 -8 22 -15 33 -15 15 0 18 -3 10 -11 -7
-7 -5 -30 8 -77 10 -37 19 -79 19 -94 0 -15 5 -30 10 -33 6 -3 10 -14 10 -24
0 -10 7 -32 15 -47 8 -16 15 -49 15 -74 1 -25 5 -65 11 -90 26 -121 42 -273
48 -454 5 -152 9 -200 19 -204 11 -3 13 34 9 204 -4 190 -19 336 -46 464 -6
25 -10 65 -11 88 0 24 -6 58 -14 75 -15 35 -28 81 -49 172 -17 73 -5 83 44 36
33 -32 73 -40 107 -21 44 24 108 50 124 50 24 0 53 16 102 58 8 6 20 12 26 12
5 0 10 5 10 10 0 6 6 10 14 10 8 0 18 9 21 20 3 11 13 20 21 20 8 0 14 3 14 8
0 4 18 26 40 50 22 23 40 46 40 50 0 5 9 17 20 27 11 10 20 23 20 30 0 18 35
55 52 55 9 0 18 13 22 30 4 21 11 30 26 30 18 0 34 30 29 56 -3 20 2 32 26 58
14 15 25 31 25 37 0 5 5 9 11 9 6 0 23 12 37 28 15 15 44 36 64 47 59 31 65
60 29 138 -35 76 -43 157 -15 157 11 0 14 5 10 16 -6 16 27 54 46 54 5 0 27
18 48 40 21 22 43 40 49 40 6 0 11 4 11 9 0 6 10 21 23 35 12 13 29 34 37 46
8 12 25 34 37 48 13 15 23 30 23 33 0 15 38 47 60 51 21 2 26 10 30 48 3 25
11 54 17 65 14 28 25 103 15 109 -5 3 -7 19 -4 36 9 60 -6 29 -18 -37 -6 -38
-18 -84 -26 -103 l-15 -35 -60 3 c-54 3 -66 0 -115 -30 -52 -31 -124 -104
-124 -126 0 -5 -7 -15 -16 -23 -20 -16 -47 -69 -40 -77 4 -3 26 14 51 39 34
34 45 51 45 77 l0 32 79 0 c51 0 81 4 83 12 2 6 10 9 17 7 9 -3 1 -19 -24 -49
-20 -24 -51 -65 -67 -90 -36 -54 -124 -130 -151 -130 -17 0 -19 5 -14 36 5 29
3 35 -10 32 -63 -12 -63 -283 0 -365 17 -23 -1 -60 -35 -74 -37 -15 -165 -142
-174 -174 -4 -11 -26 -45 -49 -75 -56 -75 -105 -149 -105 -161 0 -5 -4 -9 -8
-9 -4 0 -21 -17 -37 -38 -56 -73 -200 -182 -240 -182 -11 0 -30 -7 -42 -15
-11 -8 -42 -22 -68 -30 l-47 -17 -39 31 c-21 17 -42 31 -48 31 -6 0 -15 9 -21
20 -6 11 -21 20 -34 20 -13 0 -26 6 -29 14 -6 15 -54 24 -177 32 -50 4 -83 12
-101 25 -15 10 -32 19 -37 19 -23 0 -72 71 -72 103 0 34 -15 57 -37 57 -7 0
-13 -7 -13 -15 0 -8 5 -15 10 -15 6 0 10 -9 10 -21 0 -29 -33 -21 -42 11 -4
14 -14 52 -23 85 -9 33 -20 69 -25 80 -5 11 -11 31 -13 45 -4 21 -24 82 -46
140 -3 8 -7 -4 -9 -27 -2 -22 4 -58 12 -78 9 -21 16 -46 16 -56 0 -11 4 -27 9
-37 16 -28 40 -116 34 -122 -2 -3 -15 7 -27 23 -12 15 -29 27 -37 27 -25 0
-59 39 -59 68 0 27 -25 69 -62 106 -10 10 -18 24 -18 33 0 14 -67 183 -105
268 -8 17 -23 59 -35 94 -11 36 -27 75 -35 88 -22 33 -20 73 4 73 19 0 35 25
26 40 -3 5 -18 2 -33 -6 -27 -14 -27 -13 -38 24 -9 32 -9 38 5 43 30 12 45 37
31 54 -9 11 -17 12 -32 4 -11 -6 -22 -8 -25 -5 -12 12 -14 174 -3 216 6 25 17
68 24 95 7 28 15 57 18 65 4 8 18 52 32 98 27 86 50 138 64 144 10 4 72 117
72 131 0 5 11 31 25 58 13 27 27 72 31 99 4 28 10 50 14 50 5 0 11 15 15 33 9
39 83 177 96 177 16 0 16 0 -52 -132 -5 -10 -15 -36 -23 -58 -12 -37 -12 -41
1 -38 17 3 23 12 48 73 9 22 20 47 25 55 5 8 16 30 24 48 9 18 28 44 44 57 18
15 30 34 30 49 0 40 40 96 68 96 15 0 24 6 24 15 0 8 -4 14 -9 13 -10 -3 -11
1 -11 32 0 15 7 20 25 20 14 0 25 5 25 10 0 6 14 10 31 10 20 0 29 4 27 13 -6
15 -74 22 -83 8z m-83 -98 c-32 -72 -43 -91 -61 -107 -21 -19 -21 -19 -21 25
0 34 5 48 21 59 12 8 27 20 33 27 17 19 37 16 28 -4z m-136 -140 c-11 -11 -19
6 -11 24 8 17 8 17 12 0 3 -10 2 -21 -1 -24z m-145 -116 c-10 -9 -11 -8 -5 6
3 10 9 15 12 12 3 -3 0 -11 -7 -18z m1975 -972 c14 -13 13 -15 -10 -15 -16 0
-26 6 -26 15 0 8 5 15 11 15 6 0 17 -7 25 -15z m74 -7 c0 -17 -3 -19 -9 -9 -5
7 -15 17 -22 22 -10 6 -8 9 9 9 16 0 22 -6 22 -22z m-1874 -1042 c8 -14 23
-27 32 -29 9 -3 2 -5 -15 -6 -27 -1 -35 5 -48 29 -14 26 -14 30 0 30 8 0 22
-11 31 -24z"/>
<path d="M1665 4360 c-24 -27 -14 -35 15 -12 14 11 19 21 13 25 -6 4 -18 -2
-28 -13z"/>
<path d="M2194 4295 c-13 -19 -25 -25 -53 -25 -28 0 -44 -7 -66 -30 -16 -16
-38 -30 -50 -30 -12 0 -32 -12 -46 -26 -13 -15 -49 -45 -79 -67 -30 -22 -72
-58 -93 -79 -22 -20 -55 -42 -75 -47 -19 -6 -51 -23 -71 -38 -20 -16 -61 -39
-91 -52 -30 -13 -81 -36 -113 -53 -31 -16 -62 -28 -67 -26 -8 3 5 40 31 90 5
10 9 23 9 29 0 6 14 24 30 39 17 15 30 35 30 44 0 8 6 19 14 23 18 10 76 97
76 113 0 7 8 20 18 29 18 15 42 53 42 65 0 26 -89 -56 -90 -82 0 -16 -27 -57
-62 -96 -16 -17 -28 -35 -28 -40 0 -6 -13 -24 -28 -41 -16 -16 -39 -57 -52
-90 -13 -33 -34 -74 -47 -91 -13 -17 -23 -38 -23 -47 0 -9 -13 -39 -30 -67
-16 -28 -30 -56 -30 -63 0 -7 -9 -23 -20 -37 -11 -14 -20 -33 -20 -43 0 -9
-17 -54 -39 -100 -63 -134 -81 -201 -56 -211 11 -4 17 5 21 35 4 21 11 42 15
45 5 3 9 12 9 20 0 8 16 50 37 94 33 71 38 77 52 63 10 -10 18 -44 22 -93 5
-51 15 -95 34 -133 24 -51 45 -73 45 -47 0 25 21 6 39 -35 11 -25 25 -45 30
-45 6 0 11 -6 11 -14 0 -7 7 -19 15 -26 9 -7 22 -27 30 -44 19 -39 59 -86 74
-86 14 0 15 27 1 35 -14 9 -12 90 4 157 13 56 60 118 90 118 6 0 18 9 26 20 8
11 22 20 32 20 10 0 18 5 18 11 0 24 46 3 59 -28 19 -42 31 -42 31 0 0 43 -26
67 -71 67 -26 0 -51 -13 -103 -53 -92 -69 -105 -89 -121 -183 -7 -43 -13 -71
-14 -61 -1 9 -10 26 -21 37 -11 11 -20 23 -20 26 0 3 -11 19 -25 36 -14 16
-25 36 -25 43 0 8 -11 26 -25 41 -19 21 -25 38 -25 75 0 26 -4 51 -10 54 -5 3
-10 32 -10 64 0 80 17 91 144 91 63 0 96 -4 98 -12 2 -6 31 -13 66 -16 34 -2
65 -8 68 -13 3 -5 16 -9 30 -9 13 0 32 -4 42 -9 9 -5 29 -14 45 -22 19 -8 27
-20 27 -37 0 -30 -20 -103 -32 -117 -4 -5 -8 -23 -8 -40 0 -16 -8 -43 -18 -60
-10 -16 -21 -39 -24 -50 -9 -35 -92 -144 -108 -142 -22 3 -19 -37 3 -41 10 -2
27 7 37 20 11 12 24 28 30 35 5 7 10 15 10 19 0 4 8 14 18 23 9 9 23 30 31 46
7 17 22 46 32 66 11 20 19 47 19 59 0 27 42 154 52 158 5 2 8 24 8 48 0 24 5
44 10 44 6 0 10 -4 10 -10 0 -5 9 -10 19 -10 15 0 6 14 -37 60 -47 50 -63 60
-90 60 -18 0 -52 9 -74 20 -37 18 -62 20 -228 20 l-187 0 -49 -42 c-27 -23
-41 -33 -31 -22 9 11 17 24 17 29 0 16 73 150 91 168 10 9 27 17 38 17 11 0
23 5 26 10 3 6 13 10 22 10 8 0 26 9 40 20 14 11 34 20 44 20 10 0 34 9 54 20
20 11 41 20 48 20 7 0 28 16 47 35 19 19 42 35 52 35 19 0 53 17 76 38 7 6 17
12 22 12 5 0 12 9 15 20 3 11 12 20 18 20 7 0 18 9 25 20 7 11 18 20 26 20 7
0 30 16 50 35 21 19 42 35 47 35 5 0 9 5 9 10 0 6 10 10 21 10 12 0 35 14 51
30 21 23 37 30 64 30 23 0 42 7 51 18 20 25 15 -691 -6 -727 -7 -14 -17 -50
-21 -80 -11 -77 -39 -173 -56 -192 -8 -8 -14 -22 -14 -30 0 -31 -51 -143 -83
-183 -32 -40 -57 -87 -57 -106 0 -16 30 -11 36 5 4 8 12 15 20 15 8 0 19 9 26
20 7 11 18 20 25 20 7 0 13 5 13 10 0 6 16 10 36 10 31 0 35 2 24 15 -7 8 -25
15 -41 15 -34 0 -34 0 -9 50 11 22 20 50 20 64 0 14 5 28 10 31 6 3 10 15 10
26 0 10 6 19 13 19 13 0 42 104 56 203 5 31 15 65 22 74 19 22 26 767 8 789
-16 20 -26 18 -45 -11z m-824 -700 c-7 -8 -24 -14 -39 -14 -17 1 -20 3 -8 6 9
2 17 9 17 14 0 5 10 9 21 9 18 0 19 -2 9 -15z m363 -12 c-7 -2 -19 -2 -25 0
-7 3 -2 5 12 5 14 0 19 -2 13 -5z m-428 -23 c3 -5 1 -10 -4 -10 -6 0 -11 5
-11 10 0 6 2 10 4 10 3 0 8 -4 11 -10z"/>
<path d="M1245 4154 c-15 -19 -38 -63 -52 -97 -14 -34 -36 -73 -49 -88 -13
-14 -24 -28 -24 -32 0 -9 -40 -67 -56 -82 -22 -20 -154 -225 -154 -239 0 -7
-7 -20 -16 -27 -18 -15 -65 -86 -68 -103 -1 -6 -13 -33 -27 -61 -18 -38 -23
-61 -20 -95 l5 -45 6 50 7 50 1 -52 c1 -33 -6 -72 -19 -105 -12 -29 -25 -78
-29 -108 -4 -30 -15 -86 -24 -125 -8 -38 -16 -106 -16 -150 0 -137 -12 -245
-26 -245 -19 0 -5 -37 21 -54 l23 -15 6 177 c3 100 13 212 22 257 9 44 20 105
24 135 9 64 19 100 32 117 5 7 14 57 18 111 10 108 24 152 50 152 18 0 40 39
40 70 0 11 3 20 8 20 4 0 16 19 27 41 16 34 46 59 72 59 10 0 -6 -101 -18
-116 -6 -8 -14 -47 -16 -87 -2 -39 -10 -88 -17 -107 -26 -68 -36 -158 -36
-321 0 -109 5 -181 14 -214 13 -47 14 -38 15 159 1 205 10 296 37 366 7 19 15
68 17 107 2 40 9 78 15 85 12 15 28 178 18 178 -4 0 -16 -5 -27 -10 -27 -15
-23 -2 11 44 17 22 30 48 30 58 0 10 18 37 40 59 22 22 40 47 40 55 0 8 6 14
14 14 7 0 29 36 48 81 20 45 42 89 51 99 20 24 30 57 19 64 -6 3 -22 -10 -37
-30z"/>
<path d="M260 4130 c0 -5 5 -10 11 -10 5 0 7 5 4 10 -3 6 -8 10 -11 10 -2 0
-4 -4 -4 -10z"/>
<path d="M362 4114 c-27 -19 -29 -44 -3 -44 54 0 94 39 55 54 -22 9 -27 8 -52
-10z"/>
<path d="M1465 4080 c-3 -5 -1 -10 4 -10 6 0 11 5 11 10 0 6 -2 10 -4 10 -3 0
-8 -4 -11 -10z"/>
<path d="M89 4058 c-7 -13 -30 -44 -51 -69 -26 -31 -38 -54 -37 -75 0 -16 3
-22 6 -14 7 16 10 21 55 75 45 53 68 91 61 99 -12 11 -22 6 -34 -16z"/>
<path d="M133 4017 c-25 -29 -55 -75 -70 -111 -7 -15 -24 -37 -38 -48 -14 -11
-25 -30 -25 -43 0 -22 3 -20 40 17 22 22 42 50 46 61 4 12 21 41 38 66 45 65
47 69 38 75 -5 3 -18 -5 -29 -17z"/>
<path d="M224 3943 c-25 -44 -71 -100 -132 -159 -58 -56 -93 -98 -90 -108 5
-26 197 167 241 244 39 70 44 83 29 88 -5 1 -26 -28 -48 -65z"/>
<path d="M326 3951 c-15 -22 -34 -42 -41 -45 -8 -3 -22 -20 -31 -38 -9 -18
-36 -54 -60 -80 -24 -26 -44 -51 -44 -55 0 -4 -34 -43 -75 -86 -42 -43 -73
-82 -70 -88 7 -10 51 21 72 51 8 11 21 20 29 20 8 0 14 5 14 11 0 12 29 50 96
127 23 26 49 61 58 79 9 18 22 36 29 40 25 16 77 84 72 94 -11 16 -22 10 -49
-30z"/>
<path d="M2807 3944 c-8 -9 19 -79 47 -121 39 -56 51 -125 37 -208 -24 -143
-32 -221 -27 -256 6 -41 -1 -54 -21 -38 -10 9 -13 4 -13 -29 0 -23 -5 -44 -11
-48 -6 -3 -9 -14 -6 -24 4 -16 -10 -83 -26 -120 -3 -8 -8 -33 -10 -55 -2 -22
-5 7 -6 65 -1 92 -5 110 -26 145 l-25 40 0 -36 c0 -19 5 -40 11 -46 7 -7 10
-54 8 -136 -3 -102 -7 -129 -21 -144 -10 -11 -18 -31 -18 -44 0 -14 -6 -33
-13 -44 -23 -36 -98 -247 -97 -275 1 -8 8 1 16 20 8 19 18 37 22 40 13 9 48
74 55 102 4 15 18 39 30 55 48 58 84 155 94 256 3 26 9 47 13 47 4 0 10 15 13
33 11 70 41 182 50 188 5 4 7 11 5 15 -5 8 9 122 30 263 l7 44 18 -61 c10 -34
21 -63 25 -66 21 -13 -2 126 -31 183 -9 19 -9 25 1 28 8 3 12 27 12 74 0 57
-4 73 -21 90 -27 27 -52 10 -26 -19 10 -11 17 -35 17 -58 l0 -39 -15 29 c-8
15 -24 45 -35 65 -11 20 -24 48 -30 64 -9 26 -20 33 -33 21z m-57 -1038 c0 -3
-4 -8 -10 -11 -5 -3 -10 -1 -10 4 0 6 5 11 10 11 6 0 10 -2 10 -4z m-38 -68
c-7 -7 -12 -8 -12 -2 0 6 3 14 7 17 3 4 9 5 12 2 2 -3 -1 -11 -7 -17z"/>
<path d="M530 3900 c0 -19 3 -21 12 -12 9 9 9 15 0 24 -9 9 -12 7 -12 -12z"/>
<path d="M426 3893 c-3 -3 -6 -15 -6 -25 0 -10 -6 -21 -14 -24 -8 -3 -43 -40
-78 -82 -34 -42 -88 -102 -118 -132 -101 -101 -142 -152 -130 -164 8 -8 23 3
53 39 23 28 66 75 96 105 29 30 82 90 118 132 35 42 73 80 83 83 14 4 20 15
20 35 0 29 -12 45 -24 33z"/>
<path d="M3418 3784 c-14 -13 -9 -82 7 -97 7 -8 17 -26 20 -39 4 -13 16 -36
28 -50 12 -14 29 -36 37 -48 14 -20 50 -46 50 -36 0 2 -6 11 -13 18 -55 56
-112 167 -119 236 -2 13 -6 20 -10 16z"/>
<path d="M416 3763 c-3 -3 -6 -16 -6 -27 0 -12 -17 -37 -38 -56 -57 -55 -104
-118 -92 -125 6 -3 27 13 48 36 20 23 54 59 75 80 23 23 37 47 37 63 0 25 -12
41 -24 29z"/>
<path d="M2620 3608 c-16 -20 -60 -88 -60 -94 0 -3 -18 -27 -40 -53 -22 -26
-40 -52 -40 -59 0 -6 -13 -26 -30 -44 -16 -18 -30 -38 -30 -44 0 -7 -33 -49
-74 -93 -53 -57 -73 -86 -69 -100 5 -20 -12 -38 -22 -22 -3 6 -14 2 -25 -9
-11 -11 -32 -20 -46 -20 -16 0 -24 -5 -21 -12 2 -8 19 -13 40 -12 36 1 58 19
108 83 9 12 36 43 61 69 26 27 55 65 66 86 11 20 29 45 40 54 10 9 23 28 27
42 4 13 13 29 19 36 41 42 66 76 66 89 0 8 4 15 9 15 5 0 16 16 25 35 18 38
43 46 52 18 3 -10 10 -27 16 -37 6 -11 13 -55 17 -98 5 -53 12 -83 24 -95 16
-16 17 -13 11 62 -4 44 -13 87 -20 96 -11 12 -11 18 -1 28 9 10 8 15 -5 25
-10 7 -18 22 -18 34 0 31 -58 45 -80 20z"/>
<path d="M2996 3517 c3 -10 9 -15 12 -12 3 3 0 11 -7 18 -10 9 -11 8 -5 -6z"/>
<path d="M3128 3433 c-2 -38 0 -74 5 -80 12 -17 1 -43 -18 -43 -12 0 -15 -16
-15 -92 -1 -51 -7 -131 -14 -178 l-13 -85 -7 105 c-4 58 -7 122 -7 143 1 65
-38 237 -59 264 -11 14 -20 23 -20 20 0 -2 9 -50 20 -106 11 -55 18 -112 14
-126 -3 -14 1 -55 10 -93 34 -138 5 -512 -49 -630 -14 -30 -25 -67 -25 -82 0
-16 -7 -35 -15 -44 -8 -8 -15 -25 -15 -38 1 -22 1 -22 12 -3 6 11 14 22 17 25
3 3 11 16 17 30 6 14 22 50 36 80 14 30 33 89 43 130 10 41 22 80 26 85 4 6
15 72 24 146 8 74 20 161 25 194 5 33 10 101 10 151 0 50 5 95 11 101 5 5 13
51 16 102 5 78 4 91 -10 91 -12 0 -16 -15 -19 -67z"/>
<path d="M3593 3483 c9 -2 17 -9 17 -14 0 -5 7 -9 15 -9 8 0 15 -4 15 -10 0
-5 13 -10 28 -10 30 0 87 -24 97 -41 4 -5 17 -9 30 -9 13 0 27 -4 30 -10 3 -5
35 -10 71 -10 36 0 64 -4 64 -10 0 -5 7 -10 15 -10 8 0 15 -4 15 -10 0 -5 15
-10 34 -10 19 0 38 -4 41 -10 3 -5 35 -10 71 -10 36 0 64 4 64 10 0 6 52 10
135 10 83 0 135 4 135 10 0 6 20 10 44 10 25 0 48 5 51 10 3 6 19 10 36 10 16
0 29 5 29 10 0 6 13 10 29 10 17 0 32 4 35 9 3 4 28 11 56 15 29 4 50 12 50
19 0 8 3 7 9 -2 8 -12 12 -12 24 -2 10 8 17 9 22 1 8 -13 85 -13 85 0 0 6 13
10 29 10 17 0 33 5 36 10 3 6 31 10 61 10 43 0 54 3 54 16 0 13 -9 15 -62 9
-35 -3 -106 -8 -158 -11 -52 -3 -109 -11 -127 -19 -17 -8 -39 -15 -49 -15 -17
0 -69 -15 -109 -31 -11 -4 -45 -10 -75 -13 -30 -2 -75 -10 -100 -16 -60 -17
-258 -24 -284 -11 -12 6 -55 13 -96 15 -195 14 -212 17 -272 47 -10 5 -24 9
-32 9 -7 0 -19 7 -26 15 -7 8 -25 15 -41 15 -15 0 -31 5 -34 10 -3 6 -23 9
-43 9 -20 -1 -29 -3 -19 -6z m540 -140 c-7 -2 -21 -2 -30 0 -10 3 -4 5 12 5
17 0 24 -2 18 -5z m320 0 c-7 -2 -19 -2 -25 0 -7 3 -2 5 12 5 14 0 19 -2 13
-5z"/>
<path d="M1224 3456 c-3 -7 -4 -38 -2 -67 l3 -54 5 68 c5 67 4 79 -6 53z"/>
<path d="M3995 3312 c-11 -2 -39 -17 -63 -33 -24 -16 -51 -29 -62 -29 -31 0
-137 -109 -156 -162 -3 -9 -23 -30 -44 -47 -22 -17 -45 -42 -52 -55 -28 -52
-108 -215 -108 -220 0 -4 -8 -25 -19 -49 -10 -23 -24 -62 -31 -87 -20 -74 -31
-103 -56 -151 -13 -26 -24 -59 -24 -74 l0 -28 20 26 c11 14 20 31 20 37 0 7
14 29 30 50 17 21 30 41 30 46 0 17 72 145 96 171 14 15 37 49 50 75 13 26 28
49 33 52 10 7 3 -33 -10 -49 -4 -5 -10 -28 -14 -50 l-6 -40 30 54 c17 30 31
59 31 64 0 13 70 138 87 155 7 7 13 18 13 23 0 5 7 9 15 9 8 0 15 5 15 10 0 6
9 10 20 10 11 0 20 5 20 10 0 6 -5 10 -11 10 -13 0 69 63 95 73 10 4 16 13 13
21 -3 8 1 17 9 20 9 3 12 1 9 -4 -3 -6 5 -10 19 -10 14 0 27 4 30 9 3 5 21 12
40 15 19 4 37 13 40 21 3 8 18 15 34 15 35 0 83 21 78 35 -7 22 -99 -2 -160
-42 -48 -31 -51 -32 -54 -13 -2 11 -10 20 -19 20 -12 0 -101 -80 -165 -149 -7
-7 -42 -41 -77 -75 -35 -33 -92 -104 -128 -158 -64 -97 -106 -145 -89 -103 5
11 14 34 20 50 6 17 13 32 16 35 3 3 25 45 50 94 43 85 70 126 84 126 12 0 46
40 46 55 0 8 5 15 10 15 6 0 10 6 10 14 0 7 16 27 35 43 19 17 35 35 35 42 0
6 7 11 15 11 8 0 15 5 15 10 0 6 12 10 28 10 16 0 32 8 40 20 7 11 21 20 32
20 11 0 20 4 20 9 0 5 12 11 26 14 18 3 24 1 20 -9 -4 -9 2 -14 15 -14 15 0
20 5 17 23 -2 12 -7 22 -13 22 -5 0 -14 3 -20 6 -5 3 -19 4 -30 1z"/>
<path d="M4365 3313 c-33 -8 -42 -23 -13 -23 14 0 28 7 32 15 3 8 4 14 3 14
-1 -1 -11 -3 -22 -6z"/>
<path d="M4639 3283 c-6 -15 -24 -55 -40 -88 -16 -33 -29 -64 -29 -70 0 -9
-58 -143 -87 -200 -21 -43 -83 -215 -83 -232 0 -16 -21 -68 -47 -116 -18 -34
-22 -108 -7 -114 8 -2 15 15 19 47 4 27 12 53 19 58 7 4 20 34 29 67 32 112
69 220 88 253 10 18 19 39 19 46 0 7 16 43 35 82 19 38 35 76 35 84 0 8 18 51
40 94 22 43 40 85 40 92 0 26 -20 24 -31 -3z"/>
<path d="M5086 3303 c-3 -3 -6 -40 -6 -80 0 -59 -8 -99 -40 -196 -36 -111 -53
-205 -74 -407 -6 -66 -20 -119 -44 -172 -21 -49 -13 -77 13 -42 17 23 45 106
45 133 0 11 4 22 8 25 5 3 12 55 16 116 8 137 25 228 66 350 43 132 54 311 16
273z"/>
<path d="M4496 3258 c-3 -7 -6 -34 -9 -59 -3 -34 -19 -71 -62 -140 -75 -121
-85 -140 -85 -161 0 -10 -18 -53 -39 -95 -57 -112 -63 -128 -59 -148 5 -29 28
-30 28 -1 0 13 5 28 10 31 6 3 10 15 10 27 0 11 18 53 40 93 22 40 40 81 40
91 0 18 63 130 106 189 25 34 44 95 44 142 0 33 -17 55 -24 31z"/>
<path d="M4756 3263 c-3 -3 -6 -28 -6 -54 0 -45 -38 -146 -70 -184 -7 -9 -17
-39 -21 -67 -5 -27 -18 -69 -29 -91 -23 -44 -44 -100 -78 -212 -12 -38 -33
-105 -47 -147 -14 -42 -25 -81 -25 -87 0 -6 -13 -32 -30 -59 -16 -26 -25 -51
-21 -55 12 -12 51 23 51 44 0 9 7 22 15 29 8 7 15 22 15 35 0 12 11 53 23 91
13 38 34 103 47 144 33 109 41 130 66 185 13 28 30 75 38 105 8 30 33 92 55
138 31 63 41 95 41 132 0 46 -9 67 -24 53z"/>
<path d="M4880 3268 c-3 -249 -5 -271 -47 -393 -22 -66 -52 -149 -66 -185 -14
-36 -33 -87 -42 -115 -10 -27 -22 -58 -26 -67 -12 -25 -11 -85 2 -93 23 -15
-24 -133 -79 -197 -15 -18 -40 -58 -56 -90 -15 -31 -36 -58 -46 -61 -22 -6
-37 -64 -21 -80 13 -13 30 6 69 81 45 88 56 107 84 143 56 72 82 146 84 244 2
79 8 102 45 195 65 164 106 293 119 372 14 92 10 240 -7 246 -7 2 -13 2 -13 0z"/>
<path d="M4341 3214 c-12 -19 -21 -39 -21 -43 0 -4 -13 -27 -30 -49 -16 -23
-30 -46 -30 -52 0 -5 -11 -31 -24 -57 -42 -82 -62 -140 -75 -213 -10 -60 -9
-65 12 -57 9 3 16 27 20 60 3 30 15 74 26 98 12 23 21 50 21 60 0 9 9 28 20
42 11 14 20 31 20 39 0 8 13 32 29 54 15 21 36 58 46 81 10 23 27 44 38 47 23
6 13 26 -13 26 -10 0 -27 -15 -39 -36z"/>
<path d="M1091 3192 c-1 -7 -6 -18 -11 -25 -42 -50 -50 -63 -50 -83 0 -13 -4
-26 -10 -29 -5 -3 -10 -11 -10 -16 0 -5 11 -2 25 7 14 9 25 25 25 36 0 10 9
37 21 59 11 22 18 46 15 52 -3 8 -5 8 -5 -1z"/>
<path d="M4224 3184 c-18 -57 -32 -86 -76 -161 -26 -45 -48 -86 -48 -92 0 -21
21 -21 29 1 5 13 21 40 35 61 14 21 26 40 26 43 0 3 8 18 18 32 29 43 48 110
34 124 -8 8 -13 6 -18 -8z"/>
<path d="M4000 3111 c-7 -14 -7 -20 2 -23 14 -5 -17 -93 -43 -123 -20 -23 -30
-83 -14 -85 6 -1 14 12 19 29 5 17 12 31 17 31 4 0 17 26 29 58 11 31 25 67
32 79 21 43 -19 76 -42 34z"/>
<path d="M55 3109 c-4 -6 2 -13 14 -16 12 -3 21 -9 21 -14 0 -5 18 -9 39 -9
22 0 41 -4 43 -10 2 -5 29 -12 62 -16 48 -6 58 -4 54 7 -2 7 -24 18 -49 22
-24 5 -48 13 -53 18 -6 5 -25 9 -42 9 -18 0 -36 5 -39 10 -8 13 -42 13 -50 -1z"/>
<path d="M3887 2992 c-9 -10 -17 -25 -17 -33 0 -8 -6 -23 -13 -34 -7 -11 -21
-47 -31 -80 -11 -33 -23 -69 -27 -80 -15 -34 -27 -145 -16 -152 15 -9 27 18
27 62 0 22 7 53 15 69 8 15 15 39 15 52 0 21 24 82 67 168 17 35 3 54 -20 28z"/>
<path d="M1008 2978 c-30 -37 -38 -186 -10 -196 9 -3 12 14 12 61 0 35 5 78
11 95 6 17 9 38 7 46 -2 12 -6 11 -20 -6z"/>
<path d="M693 2935 c0 -22 2 -30 4 -17 2 12 2 30 0 40 -3 9 -5 -1 -4 -23z"/>
<path d="M4060 2930 c0 -15 -53 -60 -72 -60 -10 0 -18 -4 -18 -10 0 -5 23 -10
50 -10 l50 0 0 45 c0 25 -2 45 -5 45 -3 0 -5 -4 -5 -10z"/>
<path d="M3935 2830 c-3 -11 -10 -20 -14 -20 -4 0 -13 -11 -19 -25 -6 -14 -7
-25 -2 -25 5 0 12 9 15 20 3 11 13 20 21 20 8 0 14 10 14 25 0 30 -6 32 -15 5z"/>
<path d="M3727 2772 c-9 -10 -17 -27 -17 -38 0 -10 -7 -32 -16 -49 -18 -35
-41 -193 -31 -219 11 -28 27 -8 27 33 0 53 18 146 35 178 8 16 15 37 15 49 0
11 5 25 12 32 8 8 9 15 2 22 -7 7 -16 5 -27 -8z"/>
<path d="M4207 2753 c-11 -10 -8 -43 3 -43 6 0 10 11 10 25 0 26 -2 29 -13 18z"/>
<path d="M3860 2705 c-12 -27 -29 -62 -36 -77 -8 -14 -14 -35 -14 -47 0 -11
-6 -24 -14 -28 -7 -4 -19 -25 -25 -45 -7 -20 -28 -52 -47 -71 -20 -19 -39 -49
-44 -68 -5 -19 -19 -74 -32 -124 l-23 -90 -3 118 c-2 75 -6 117 -13 117 -11 0
-7 193 5 255 6 29 6 30 -5 5 -7 -14 -15 -64 -19 -112 -6 -84 -7 -88 -53 -146
-26 -33 -47 -62 -47 -65 0 -16 -76 -77 -103 -82 -17 -4 -51 -15 -74 -26 -24
-10 -49 -19 -56 -19 -7 0 -17 -4 -23 -10 -5 -5 -54 -11 -108 -12 -116 -3 -132
-14 -105 -70 9 -18 22 -45 29 -60 14 -30 40 -38 40 -13 0 8 -11 34 -25 59 -14
25 -25 47 -25 50 0 3 47 6 105 6 63 0 105 4 105 10 0 6 11 10 24 10 14 0 28 5
31 10 3 6 15 10 26 10 10 0 19 4 19 9 0 5 22 12 50 16 36 5 51 12 55 26 4 10
11 19 16 19 14 0 31 18 59 65 25 41 45 65 54 65 2 0 6 -66 8 -147 2 -117 7
-155 21 -182 9 -19 17 -43 17 -53 0 -10 7 -21 15 -24 11 -5 12 -10 2 -25 -20
-32 16 -48 106 -49 45 0 77 4 77 10 0 6 50 10 129 10 76 0 132 4 136 10 3 6
19 10 36 10 16 0 29 5 29 10 0 6 13 10 29 10 22 0 30 6 35 25 4 14 12 25 19
25 7 0 23 9 35 20 12 11 25 20 31 20 5 0 11 5 13 12 6 18 26 1 44 -37 20 -43
30 -44 37 -6 4 20 14 31 32 35 23 6 26 10 20 36 -5 23 -3 30 9 30 11 0 16 9
16 30 0 17 4 30 8 30 5 0 19 33 32 73 13 39 27 76 32 82 4 5 8 22 8 37 0 15 5
28 10 28 6 0 10 10 10 23 0 12 9 40 19 62 11 22 32 67 46 100 15 33 36 77 46
98 11 21 17 42 13 48 -9 15 -51 -27 -59 -59 -7 -30 -46 -118 -75 -174 -11 -20
-20 -44 -20 -53 0 -8 -4 -23 -9 -33 -5 -9 -21 -56 -36 -104 -15 -48 -33 -95
-41 -105 -7 -10 -14 -25 -14 -34 0 -9 -7 -22 -15 -29 -8 -7 -15 -22 -15 -35 0
-39 -11 -35 -60 23 -26 31 -57 66 -69 76 -21 19 -21 19 -21 -2 0 -12 10 -32
23 -44 12 -13 29 -32 37 -42 13 -16 13 -19 1 -15 -8 3 -24 -4 -35 -15 -14 -14
-21 -16 -24 -7 -2 7 1 17 9 21 14 10 10 16 -53 85 -59 65 -78 92 -78 113 0 29
-26 48 -44 33 -10 -9 -21 -9 -33 -3 -10 5 -37 13 -60 17 -24 4 -45 11 -49 16
-3 5 -25 9 -49 9 -24 0 -56 5 -70 12 -21 9 -31 9 -46 0 -27 -17 -69 -15 -69 3
0 8 6 15 13 15 6 0 25 24 41 53 17 28 34 57 38 62 5 6 20 24 33 40 14 17 28
38 31 48 3 9 11 17 18 17 7 0 19 12 26 28 9 19 14 22 17 12 12 -43 46 -100 68
-114 24 -16 25 -16 25 9 0 16 -6 25 -15 25 -8 0 -15 8 -15 19 0 10 -6 24 -14
30 -8 7 -17 27 -20 46 -5 25 -12 35 -25 35 -19 0 -51 -29 -51 -47 0 -5 -6 -10
-14 -10 -11 0 -11 8 -4 34 15 57 2 61 -22 8z m-110 -385 c6 0 10 7 10 15 0 11
12 15 44 15 25 0 48 -4 51 -10 4 -6 -6 -10 -23 -10 -31 0 -55 -21 -66 -56 -4
-12 -15 -29 -26 -39 -11 -10 -20 -27 -20 -37 0 -18 2 -18 29 4 17 13 33 31 36
41 4 9 11 15 16 12 5 -4 9 -1 9 5 0 6 6 18 14 25 11 12 15 10 25 -11 27 -60
-5 -185 -53 -204 -11 -4 -39 -22 -61 -40 l-40 -32 -6 29 c-3 15 -2 35 2 44 14
28 -4 30 -22 3 -9 -14 -19 -22 -23 -16 -7 11 9 114 22 139 5 10 12 37 16 61 3
24 14 55 23 68 14 22 18 23 25 10 5 -9 13 -16 18 -16z m210 -30 c0 -5 15 -10
33 -10 23 0 43 -10 68 -32 20 -18 45 -40 57 -48 12 -8 22 -24 22 -37 0 -12 7
-26 16 -31 25 -14 11 -82 -16 -82 -11 0 -20 -4 -20 -9 0 -5 -8 -11 -17 -15
-10 -3 -25 -10 -33 -15 -8 -5 -35 -14 -60 -21 -25 -7 -55 -16 -68 -21 -13 -5
-45 -9 -72 -9 -27 0 -52 -4 -55 -10 -3 -5 -33 -10 -66 -10 -44 0 -59 3 -59 14
0 8 10 18 23 22 12 4 29 15 38 25 9 11 21 19 28 19 6 0 11 5 11 10 0 6 10 10
23 10 48 0 95 154 69 229 l-11 31 45 0 c24 0 44 -4 44 -10z m280 -200 c0 -26
-5 -40 -13 -40 -9 0 -11 12 -9 40 2 22 8 40 13 40 5 0 9 -18 9 -40z"/>
<path d="M3700 2150 c0 -5 5 -10 10 -10 6 0 10 5 10 10 0 6 -4 10 -10 10 -5 0
-10 -4 -10 -10z"/>
<path d="M3725 1960 c3 -5 10 -10 16 -10 5 0 9 5 9 10 0 6 -7 10 -16 10 -8 0
-12 -4 -9 -10z"/>
<path d="M3765 1960 c-3 -5 -1 -10 4 -10 6 0 11 5 11 10 0 6 -2 10 -4 10 -3 0
-8 -4 -11 -10z"/>
<path d="M5076 2608 c-3 -7 -7 -51 -9 -98 -2 -47 -6 -91 -8 -99 -2 -7 1 -15 8
-18 17 -6 33 61 33 144 0 65 -14 105 -24 71z"/>
<path d="M4080 2486 c14 -13 26 -22 28 -21 8 7 -24 45 -38 45 -10 0 -7 -7 10
-24z"/>
<path d="M1560 2471 c0 -12 26 -21 61 -21 16 0 29 -4 29 -10 0 -5 11 -10 24
-10 14 0 28 -4 31 -10 3 -5 15 -10 26 -10 10 0 19 -3 19 -8 0 -4 12 -13 28
-19 35 -16 86 -62 101 -90 14 -28 14 -78 0 -106 -14 -27 -66 -77 -81 -77 -6 0
-26 -13 -45 -30 -18 -16 -41 -30 -49 -30 -8 0 -34 -9 -57 -20 -23 -12 -62 -24
-87 -27 -25 -3 -51 -10 -57 -16 -18 -13 -16 -37 2 -37 8 0 15 4 15 9 0 4 27
11 60 15 33 4 60 11 60 16 0 6 9 10 19 10 11 0 23 5 26 10 3 6 16 10 29 10 13
0 37 14 54 30 18 17 38 30 46 30 19 0 70 49 90 87 9 18 16 55 16 83 0 49 -3
54 -53 105 -49 48 -146 105 -182 105 -7 0 -17 5 -20 10 -8 12 -105 13 -105 1z"/>
<path d="M1395 2424 c-41 -49 -53 -87 -54 -171 -1 -63 3 -80 36 -145 37 -74
82 -138 96 -138 14 0 7 32 -15 63 -53 74 -88 160 -88 219 0 56 10 97 30 121
38 45 50 61 50 68 0 4 12 10 28 12 20 3 17 4 -13 6 -35 1 -44 -4 -70 -35z"/>
<path d="M4140 2386 c0 -2 8 -10 18 -17 15 -13 16 -12 3 4 -13 16 -21 21 -21
13z"/>
<path d="M1756 2352 c-3 -5 2 -21 10 -36 23 -45 18 -123 -9 -149 -12 -12 -31
-34 -40 -50 -16 -25 -16 -28 -1 -34 10 -4 20 0 25 9 5 9 22 30 39 48 27 29 30
38 30 101 0 82 -32 147 -54 111z"/>
<path d="M4815 2312 c-17 -20 -54 -73 -84 -117 -29 -44 -69 -96 -87 -115 -19
-20 -44 -56 -57 -80 -13 -28 -28 -45 -38 -44 -10 1 -51 -31 -93 -71 -42 -40
-84 -76 -92 -79 -23 -9 -13 -40 14 -44 17 -3 25 3 33 26 10 28 132 146 153
147 27 2 45 19 51 47 4 17 24 49 45 72 20 23 65 82 99 131 34 50 71 102 83
118 14 17 19 30 12 37 -6 6 -20 -4 -39 -28z"/>
<path d="M4976 2323 c-3 -3 -6 -15 -6 -25 0 -23 -52 -126 -91 -181 -16 -23
-53 -66 -81 -95 -33 -35 -48 -56 -41 -63 30 -30 243 264 243 337 0 24 -13 38
-24 27z"/>
<path d="M5056 2263 c-3 -3 -6 -19 -6 -34 0 -31 -14 -67 -47 -120 -12 -20 -19
-40 -15 -43 3 -4 -7 -19 -24 -35 -74 -72 -164 -181 -164 -198 0 -17 -37 -45
-45 -34 -10 17 -55 -18 -55 -44 0 -12 -6 -28 -14 -35 -8 -6 -13 -17 -10 -25 3
-7 1 -16 -5 -20 -6 -3 -11 -23 -11 -43 0 -22 -10 -54 -25 -77 -13 -22 -25 -52
-25 -67 0 -15 -4 -29 -9 -32 -5 -3 -19 -39 -31 -78 -12 -40 -33 -92 -46 -115
-13 -23 -24 -47 -24 -53 0 -7 -10 -24 -21 -38 l-22 -27 7 45 c4 25 16 64 28
88 11 24 24 69 28 100 10 69 29 139 70 255 37 109 47 127 65 127 8 0 15 5 15
10 0 6 7 10 15 10 8 0 15 5 15 10 0 6 6 10 14 10 16 0 29 27 20 41 -3 5 -23 9
-45 9 -32 0 -39 -3 -39 -20 0 -21 -73 -80 -110 -90 -29 -8 -220 -191 -240
-230 -30 -58 -83 -113 -113 -116 -28 -3 -116 -72 -143 -111 -21 -33 -35 -29
-22 7 11 34 44 61 63 54 8 -3 16 4 20 18 8 25 136 158 153 158 14 0 24 32 13
43 -5 5 -33 -15 -72 -53 -81 -78 -89 -85 -89 -73 0 15 84 103 98 103 7 0 12 3
12 8 0 10 67 82 77 82 4 1 24 14 43 30 19 17 42 30 51 30 9 0 24 9 34 20 10
11 24 20 32 20 7 0 28 15 46 33 17 19 40 37 50 40 24 9 12 27 -16 27 -13 0
-33 -14 -50 -35 -15 -19 -34 -35 -41 -35 -7 0 -20 -8 -30 -18 -9 -11 -34 -25
-57 -32 -22 -8 -45 -22 -50 -32 -5 -10 -15 -18 -22 -18 -6 0 -31 -21 -54 -46
-43 -46 -59 -48 -25 -3 10 13 42 69 72 124 29 55 59 106 67 113 7 7 13 20 13
28 0 8 3 14 8 14 7 0 32 70 32 92 0 21 -32 -18 -59 -71 -50 -96 -134 -246
-152 -269 -10 -13 -21 -37 -25 -55 -3 -17 -23 -54 -44 -82 -21 -27 -49 -73
-64 -102 -14 -28 -30 -54 -35 -57 -5 -4 -21 -32 -36 -63 -14 -32 -34 -66 -43
-76 -9 -10 -35 -54 -57 -97 -22 -43 -61 -108 -87 -144 -27 -37 -48 -76 -48
-86 0 -11 -6 -20 -12 -20 -58 -3 -113 -11 -116 -19 -3 -9 -117 44 -127 59 -3
6 -15 10 -26 10 -11 0 -40 11 -65 25 -26 14 -61 25 -83 25 -21 0 -41 3 -45 7
-16 17 -87 33 -146 33 -38 0 -72 6 -82 14 -18 13 -25 66 -10 66 12 0 42 147
42 207 0 29 -4 55 -10 58 -14 8 -13 88 2 120 11 24 15 25 90 25 43 0 78 4 78
9 0 42 -91 152 -145 176 -33 14 -65 45 -65 62 0 16 24 43 38 43 20 0 33 59 30
136 -4 103 -22 99 -26 -5 -3 -77 -4 -80 -37 -106 -28 -21 -35 -33 -35 -61 0
-37 44 -94 73 -94 8 0 31 -16 50 -35 19 -19 42 -35 51 -35 13 0 36 -35 36 -56
0 -2 -31 -4 -69 -4 -63 0 -71 -2 -90 -26 -17 -21 -21 -41 -21 -95 0 -37 5 -71
10 -74 5 -3 10 -21 10 -40 0 -42 -28 -167 -41 -180 -10 -10 -12 -75 -3 -99 3
-9 12 -16 20 -16 8 0 14 -4 14 -10 0 -6 33 -10 79 -10 44 0 83 -4 86 -10 3 -5
17 -10 31 -10 13 0 24 -4 24 -10 0 -5 20 -10 44 -10 25 0 48 -4 51 -10 3 -5
15 -10 26 -10 10 0 19 -4 19 -10 0 -5 17 -12 37 -16 20 -4 46 -15 57 -25 11
-11 28 -19 37 -19 10 0 19 -5 21 -11 2 -6 24 -12 48 -14 37 -2 46 -7 52 -26
l6 -24 7 22 c4 13 12 23 17 23 16 0 -2 -41 -49 -114 -24 -37 -42 -73 -40 -80
2 -6 -11 -30 -29 -53 -19 -23 -34 -45 -34 -49 0 -4 -8 -17 -18 -28 -10 -12
-31 -50 -46 -86 -15 -36 -35 -74 -45 -85 -28 -31 -111 -195 -111 -219 0 -11
-9 -32 -20 -46 -23 -30 -26 -50 -6 -50 18 0 56 64 56 95 0 13 6 30 13 37 6 7
27 46 46 86 19 39 38 72 42 72 5 0 26 37 49 83 62 125 72 141 120 195 8 10 22
32 31 50 14 29 17 31 23 15 7 -16 9 -16 19 -3 7 8 23 21 36 28 26 15 23 4 -10
-33 -9 -11 -36 -54 -60 -95 -23 -41 -57 -93 -75 -116 -19 -22 -41 -58 -49 -78
-9 -21 -37 -65 -63 -97 -109 -136 -113 -142 -108 -165 4 -13 -2 -31 -15 -48
-20 -25 -20 -26 -1 -26 13 0 35 26 71 86 29 47 55 83 58 80 3 -3 1 -12 -5 -19
-13 -15 -6 -27 15 -27 7 0 13 6 13 13 0 14 28 52 73 101 l29 31 -23 -40 c-12
-22 -29 -48 -37 -57 -17 -21 -22 -149 -6 -155 7 -2 13 20 17 64 3 39 11 71 19
77 7 6 19 22 26 36 6 14 16 32 20 40 36 64 52 103 52 124 0 14 5 28 11 32 6 3
19 25 29 48 9 22 34 66 54 96 20 30 36 58 36 63 0 19 33 77 44 77 6 0 28 -38
49 -83 20 -45 51 -110 68 -144 17 -34 29 -70 27 -80 -2 -9 -23 -30 -46 -46
-24 -16 -46 -37 -50 -46 -3 -9 -12 -22 -19 -29 -7 -7 -13 -22 -13 -33 0 -10
-3 -19 -7 -19 -5 0 -28 -18 -52 -40 -25 -22 -50 -40 -57 -40 -40 0 -58 -101
-21 -108 15 -3 18 0 12 17 -9 30 3 61 26 61 10 0 19 5 19 10 0 6 4 10 10 10 5
0 22 13 37 28 16 16 36 31 46 35 10 4 17 17 17 32 0 14 7 28 15 31 8 4 15 14
15 24 0 12 15 25 40 37 22 10 40 25 41 33 0 13 1 13 6 0 2 -8 8 -24 13 -35 12
-29 27 -84 35 -127 3 -21 10 -38 14 -38 5 0 11 -19 15 -41 8 -52 22 -79 41
-79 16 0 21 25 6 34 -5 3 -12 23 -15 43 -4 21 -13 52 -20 68 -8 17 -21 57 -29
90 -26 103 -41 141 -143 360 -21 44 -46 90 -56 101 -19 21 -19 23 -2 55 9 19
29 52 44 74 15 22 32 56 39 76 6 20 20 44 30 53 10 9 31 46 46 81 15 36 31 65
36 65 5 0 9 11 9 24 0 14 8 31 18 38 9 7 27 34 40 61 13 26 27 47 32 47 5 0
17 14 26 31 9 18 37 53 62 79 56 58 65 69 82 101 7 13 26 37 42 53 15 17 28
33 28 38 0 4 6 8 13 8 8 0 20 11 27 25 7 14 22 25 32 25 10 0 18 4 18 9 0 17
61 71 80 71 25 0 25 0 -6 -85 -34 -94 -54 -167 -64 -242 -5 -34 -17 -77 -26
-95 -10 -18 -23 -58 -30 -88 -7 -30 -19 -73 -28 -95 -8 -22 -15 -54 -16 -70 0
-17 -6 -39 -13 -50 -23 -33 -27 -64 -10 -74 14 -7 14 -16 0 -87 -8 -43 -20
-140 -27 -214 -6 -74 -16 -164 -22 -200 -16 -97 -16 -392 0 -397 7 -3 12 5 12
21 0 13 4 27 8 30 5 3 16 42 26 88 9 46 26 112 36 148 10 36 21 80 25 98 11
55 16 30 7 -36 -5 -34 -5 -65 -1 -69 5 -5 10 -69 11 -142 2 -97 7 -136 16
-139 9 -3 12 43 12 206 0 207 7 279 31 337 16 37 37 175 48 315 5 58 14 134
20 170 6 36 11 68 11 73 0 4 6 7 14 7 7 0 19 7 26 15 9 11 33 15 85 15 49 0
75 4 78 13 3 6 6 -84 6 -202 1 -118 5 -228 10 -245 42 -141 51 -175 51 -195 0
-13 6 -35 14 -49 13 -24 77 -169 87 -197 17 -47 76 -135 91 -135 10 0 18 2 18
5 0 3 -18 35 -40 71 -22 36 -40 69 -40 73 0 4 -13 34 -29 67 -15 32 -34 76
-40 96 -7 21 -17 40 -22 43 -5 4 -9 19 -9 34 0 16 -7 48 -16 72 -31 84 -37
135 -41 352 -3 198 -2 217 13 217 9 0 26 10 37 23 14 16 18 17 14 5 -3 -10 -2
-20 4 -23 12 -8 32 13 57 61 11 21 30 48 42 59 32 29 54 75 42 87 -12 12 -6
35 14 59 21 24 45 112 34 123 -9 9 -18 -7 -39 -69 -8 -27 -10 -24 -10 30 -1
33 -7 71 -14 85 -14 26 -5 51 30 88 7 7 13 22 13 33 0 23 26 76 46 97 8 7 14
17 14 22 0 18 -18 19 -32 2 -21 -23 -58 -98 -58 -115 0 -8 -7 -21 -16 -28 -9
-7 -19 -21 -23 -31 -6 -17 -11 -16 -54 12 -40 25 -58 30 -115 31 -37 0 -61 3
-54 6 6 2 12 11 12 18 0 8 11 25 25 39 14 14 25 30 25 36 0 5 8 18 18 29 27
29 52 64 52 73 0 4 7 8 15 8 8 0 15 5 15 10 0 13 88 100 100 100 5 0 11 9 15
19 3 11 21 36 40 57 21 23 35 48 35 63 l0 26 -24 -30 c-26 -32 -45 -30 -27 3
20 38 10 107 -13 85z m-306 -507 c0 -3 -4 -8 -10 -11 -5 -3 -10 -1 -10 4 0 6
5 11 10 11 6 0 10 -2 10 -4z m140 -75 c0 -5 15 -16 34 -25 19 -9 44 -32 57
-52 20 -32 21 -44 15 -119 -8 -106 -34 -165 -104 -232 -43 -42 -61 -53 -88
-53 -18 0 -36 -4 -39 -10 -3 -5 -35 -10 -71 -10 -36 0 -74 -5 -85 -11 -19 -10
-20 -8 -17 28 2 30 7 37 21 35 15 -3 17 7 17 98 0 60 4 100 10 100 6 0 10 14
10 30 0 17 4 30 9 30 5 0 14 20 20 44 6 25 18 51 26 60 8 8 15 21 15 29 0 29
12 47 31 47 10 0 19 5 19 10 0 6 27 10 60 10 33 0 60 -4 60 -9z m-739 -359
c-5 -10 -17 -24 -25 -31 -9 -7 -26 -33 -38 -57 -12 -24 -30 -52 -40 -61 -10
-9 -18 -24 -18 -34 0 -10 -9 -23 -19 -28 -10 -6 -24 -24 -29 -41 -6 -16 -15
-30 -20 -30 -4 0 -30 -30 -56 -66 -37 -49 -54 -64 -70 -62 -11 1 -27 -1 -34
-5 -7 -5 2 12 18 37 17 25 36 48 41 52 6 3 19 26 30 51 21 49 125 183 142 183
2 0 29 25 60 55 59 58 74 67 58 37z m412 -100 c-3 -29 -12 -60 -20 -69 -12
-16 -13 -15 -8 12 11 53 28 116 31 112 2 -2 1 -27 -3 -55z m-122 -125 c-10 -9
-11 -8 -5 6 3 10 9 15 12 12 3 -3 0 -11 -7 -18z m100 -19 c-4 -13 -11 -52 -15
-88 -8 -68 -78 -231 -84 -196 -2 9 4 33 13 52 17 36 17 109 0 109 -5 0 -12
-21 -15 -46 -3 -26 -11 -53 -17 -60 -6 -8 -13 -38 -15 -67 -3 -29 -11 -59 -18
-65 -10 -10 -12 -8 -6 8 4 11 14 70 21 130 18 144 25 175 43 204 16 23 16 23
24 2 11 -30 28 -26 35 9 4 20 11 30 24 30 15 0 17 -4 10 -22z m-638 -185 c-21
-57 -103 -135 -103 -99 0 8 -7 19 -15 26 -14 12 -13 16 10 40 18 18 33 26 49
23 13 -3 28 2 35 11 18 21 32 20 24 -1z m591 -130 c-10 -34 -19 -51 -21 -40
-5 21 28 127 34 110 3 -7 -3 -39 -13 -70z m-720 15 c9 -34 9 -34 -35 -69 -58
-46 -72 -27 -29 40 35 55 54 64 64 29z m609 -275 c4 -119 2 -150 -14 -195 -10
-29 -19 -69 -19 -88 0 -19 -5 -42 -11 -50 -12 -17 -4 153 11 235 5 28 12 94
16 148 3 54 8 97 9 95 2 -2 6 -67 8 -145z m38 82 c-9 -30 -9 -30 -10 10 -1 25
2 36 9 29 6 -6 6 -21 1 -39z m-667 3 c-36 -64 -89 -136 -96 -132 -15 10 64
144 85 144 12 0 16 -4 11 -12z m-134 -268 c-16 -31 -23 -19 -9 16 6 16 13 24
16 17 2 -7 -1 -22 -7 -33z m-68 -12 c-8 -8 -9 -4 -5 13 4 13 8 18 11 10 2 -7
-1 -18 -6 -23z m-46 -100 c-18 -26 -22 -17 -5 14 6 11 13 17 16 15 3 -3 -2
-16 -11 -29z"/>
<path d="M4886 1563 c-3 -3 -6 -28 -6 -55 0 -63 -30 -130 -67 -148 -59 -30
-96 -80 -58 -80 8 0 15 5 15 10 0 6 7 10 15 10 8 0 15 5 15 10 0 6 9 10 20 10
11 0 20 5 20 10 0 6 7 10 15 10 8 0 15 6 15 14 0 8 8 22 17 31 11 12 18 40 21
95 4 71 -4 101 -22 83z"/>
<path d="M2085 2170 c-18 -19 -17 -20 3 -20 15 0 22 6 22 20 0 11 -2 20 -3 20
-2 0 -12 -9 -22 -20z"/>
<path d="M2147 2098 c8 -24 19 -48 24 -54 5 -6 7 -18 4 -25 -3 -8 11 -47 30
-87 19 -41 35 -82 35 -92 0 -11 9 -24 20 -30 12 -7 20 -21 20 -38 0 -15 5 -43
11 -62 6 -19 17 -66 24 -105 8 -38 18 -88 23 -110 27 -110 34 -147 42 -233 5
-52 14 -100 21 -108 17 -21 4 -112 -20 -138 -11 -12 -31 -48 -46 -81 -14 -32
-40 -73 -58 -90 -18 -16 -42 -43 -54 -58 l-22 -28 -20 20 c-12 12 -27 21 -35
21 -8 0 -18 9 -21 20 -7 21 -63 50 -97 50 -11 0 -31 9 -45 20 -16 12 -41 20
-65 20 -37 0 -38 1 -32 28 4 15 10 29 14 32 3 3 12 25 19 50 10 34 11 85 6
207 -4 90 -11 166 -16 169 -5 3 -9 25 -9 50 0 25 -4 53 -9 63 -14 26 -43 258
-39 316 2 39 0 50 -12 50 -11 0 -16 -14 -18 -54 -4 -65 26 -312 39 -325 5 -6
9 -31 9 -57 0 -26 4 -50 9 -53 4 -3 12 -73 16 -155 7 -146 3 -184 -25 -246 -5
-11 -14 -32 -20 -47 -9 -26 -14 -28 -63 -28 -63 0 -163 -44 -187 -83 -8 -13
-26 -41 -40 -63 -14 -21 -31 -51 -38 -67 -10 -24 -9 -27 7 -27 11 0 26 17 41
51 13 27 29 53 35 57 6 4 18 19 28 35 10 15 26 27 36 27 10 0 26 9 36 20 16
18 31 20 130 20 99 0 114 -2 130 -20 10 -11 30 -20 45 -20 33 0 86 -25 94 -45
3 -9 17 -20 31 -25 39 -15 53 -54 32 -90 -16 -27 -16 -29 -1 -38 16 -9 16 -21
7 -123 -13 -146 -64 -296 -115 -340 -32 -28 -35 -28 -161 -29 -117 0 -132 2
-177 25 -27 13 -51 29 -55 35 -3 5 -15 10 -27 10 -11 0 -31 9 -45 20 -14 11
-32 20 -40 20 -8 0 -23 10 -32 22 -22 27 -51 18 -51 -16 0 -14 -4 -28 -10 -31
-5 -3 -10 -17 -10 -30 0 -13 -4 -26 -10 -30 -5 -3 -21 -32 -36 -65 -15 -33
-33 -65 -40 -71 -18 -14 -18 -39 -1 -39 18 0 38 27 66 88 14 28 28 52 32 52 3
0 12 19 18 43 11 45 31 82 31 60 0 -7 11 -13 23 -13 13 0 32 -9 42 -20 10 -11
31 -20 46 -20 15 0 31 -5 34 -10 9 -14 -32 -93 -73 -141 -30 -35 -31 -39 -13
-39 27 0 66 40 96 100 22 44 28 48 48 41 19 -7 22 -16 25 -75 2 -50 6 -66 17
-66 12 0 15 14 15 60 l0 60 144 0 c135 0 145 1 151 19 3 11 14 23 24 26 18 5
39 45 62 120 7 22 17 44 21 49 4 6 8 17 8 25 0 9 4 23 10 31 9 14 15 9 57 -45
19 -24 33 -69 33 -103 0 -21 7 -47 15 -58 8 -13 15 -51 17 -94 2 -48 7 -75 16
-78 9 -3 12 17 12 78 0 67 -4 87 -21 111 -15 21 -20 40 -16 62 6 42 -15 87
-62 137 l-39 42 5 131 c4 101 10 141 25 170 10 20 23 37 28 37 5 0 11 9 15 19
3 10 14 21 25 24 18 5 53 62 76 125 7 19 21 40 32 48 26 18 41 129 22 164 -7
12 -14 59 -17 104 -2 44 -8 90 -13 101 -5 11 -11 36 -14 55 -3 19 -9 53 -12
75 -4 22 -10 45 -14 50 -5 6 -11 36 -15 69 -4 32 -19 88 -33 125 -13 36 -32
89 -42 117 -10 27 -29 72 -42 100 -14 27 -33 79 -42 117 -14 51 -22 67 -36 67
-16 0 -17 -3 -3 -42z"/>
<path d="M2046 2003 c-12 -12 -6 -41 18 -90 13 -26 27 -64 31 -83 3 -19 13
-53 20 -75 36 -104 55 -186 61 -255 4 -41 11 -80 15 -86 5 -6 14 -46 20 -90 6
-43 15 -87 20 -96 5 -10 9 -76 9 -148 0 -137 -4 -151 -53 -207 -18 -21 -19
-23 -3 -29 11 -4 24 3 39 20 13 14 28 26 35 26 10 0 12 38 9 172 -5 180 -12
244 -30 266 -6 8 -10 30 -9 49 2 19 -1 40 -6 47 -5 6 -12 44 -16 84 -3 40 -20
118 -37 175 -17 56 -36 125 -43 153 -7 28 -22 71 -34 95 -12 25 -22 50 -22 57
0 14 -15 24 -24 15z"/>
<path d="M5031 1969 c-18 -17 -39 -45 -48 -63 -8 -17 -31 -48 -49 -69 -19 -20
-34 -44 -34 -51 0 -23 19 -29 27 -9 3 10 20 34 37 54 17 20 42 55 55 77 13 22
32 43 43 45 19 5 25 32 9 41 -5 4 -23 -8 -40 -25z"/>
<path d="M667 1914 c-8 -8 1 -24 12 -24 4 0 8 7 8 15 0 16 -9 20 -20 9z"/>
<path d="M728 1907 c-6 -16 1 -37 13 -37 12 0 12 37 0 44 -5 3 -11 0 -13 -7z"/>
<path d="M633 1879 c-7 -7 -13 -19 -13 -26 0 -8 -8 -17 -17 -20 -10 -4 -24
-13 -31 -20 -11 -11 -11 -13 2 -13 9 0 16 -2 16 -5 0 -13 -63 -90 -73 -90 -7
0 -16 -10 -22 -22 -5 -13 -16 -23 -23 -23 -7 0 -23 -11 -36 -25 -21 -22 -25
-23 -42 -10 -10 8 -25 15 -32 15 -8 0 -34 18 -59 39 -24 22 -58 43 -74 46 -17
4 -61 25 -98 46 -71 41 -111 50 -111 24 0 -8 7 -15 15 -15 15 0 55 -19 65 -31
3 -3 20 -12 38 -20 17 -8 32 -17 32 -20 0 -4 18 -9 40 -13 22 -3 40 -11 40
-16 0 -6 5 -10 11 -10 6 0 23 -13 38 -29 15 -16 40 -31 57 -33 26 -3 29 -7 27
-36 0 -18 -13 -57 -27 -88 -14 -30 -26 -58 -26 -63 0 -4 -9 -16 -19 -25 -11
-10 -25 -31 -31 -47 -7 -16 -16 -27 -20 -24 -4 3 -15 -11 -24 -30 -18 -38 -42
-55 -78 -55 -36 -1 -153 -62 -156 -83 -3 -16 1 -15 37 7 22 14 49 26 60 26 11
0 23 5 26 10 3 6 19 10 35 10 16 0 40 4 54 10 24 9 26 7 26 -15 0 -14 9 -42
20 -62 l20 -38 -25 -23 c-14 -12 -25 -28 -25 -35 -1 -28 -166 -177 -196 -177
-8 0 -14 -7 -14 -15 0 -17 45 -21 55 -5 4 6 23 21 43 34 62 39 142 126 142
154 0 8 9 25 20 39 24 30 26 62 5 89 -22 29 -19 99 8 144 21 38 24 40 74 40
28 0 55 5 58 10 7 12 125 14 125 2 0 -5 11 -14 25 -20 22 -10 24 -10 16 6 -5
9 -12 25 -15 35 -5 17 -15 18 -83 13 -43 -3 -100 -8 -128 -12 -48 -6 -49 -6
-35 12 8 11 21 30 28 43 8 13 22 39 33 58 10 18 19 40 19 48 0 8 7 15 15 15 8
0 38 25 67 55 71 74 73 77 91 112 9 16 23 35 31 42 9 8 16 22 16 31 0 10 5 20
11 22 6 2 9 18 7 36 -2 27 -5 31 -15 21z"/>
<path d="M693 1808 c3 -35 12 -90 20 -123 39 -159 47 -205 47 -261 0 -37 -6
-67 -15 -80 -20 -27 -18 -44 5 -44 46 0 51 153 10 325 -11 50 -26 125 -33 168
-8 55 -15 77 -26 77 -11 0 -13 -12 -8 -62z"/>
<path d="M891 1731 c-10 -6 -10 -10 -1 -16 13 -8 24 -1 19 14 -3 6 -10 7 -18
2z"/>
<path d="M777 1654 c-10 -11 3 -24 24 -24 10 0 19 -4 19 -10 0 -5 8 -10 18
-10 9 0 26 -7 36 -15 11 -8 30 -15 42 -15 14 0 25 -8 29 -20 3 -11 15 -20 25
-20 17 0 17 -14 13 -282 -3 -185 -10 -308 -19 -355 -19 -99 -19 -203 1 -203
12 0 15 14 15 68 0 37 6 94 14 127 10 42 15 153 17 365 l4 305 -21 3 c-12 2
-24 12 -27 23 -3 12 -14 19 -30 19 -13 0 -45 11 -71 25 -47 25 -77 31 -89 19z"/>
<path d="M507 1563 c-3 -5 -1 -17 3 -28 6 -17 7 -16 12 8 5 25 -5 37 -15 20z"/>
<path d="M621 1346 c8 -6 20 -23 28 -38 8 -16 23 -28 33 -28 17 0 17 2 -3 39
-15 30 -26 39 -46 39 -22 0 -24 -3 -12 -12z"/>
<path d="M597 1231 c-3 -55 -11 -88 -21 -100 -9 -10 -16 -21 -16 -26 0 -4 -11
-23 -26 -42 -28 -37 -65 -43 -98 -18 -11 8 -28 15 -37 15 -10 0 -22 7 -27 16
-5 9 -18 14 -32 12 -29 -4 -39 -28 -13 -28 23 0 73 -22 73 -32 0 -5 7 -8 15
-8 22 0 10 -64 -19 -106 -25 -38 -113 -110 -176 -146 -25 -14 -55 -40 -68 -57
-13 -18 -32 -31 -45 -31 -23 0 -71 -43 -60 -54 12 -11 41 -6 47 9 3 8 15 15
27 15 13 0 43 22 74 55 30 30 62 55 72 55 10 0 38 18 62 40 24 22 47 40 51 40
3 0 13 11 20 25 7 14 19 25 26 25 14 0 30 82 19 99 -4 7 8 11 35 11 33 0 47 6
75 35 19 19 35 39 35 45 0 6 7 22 16 35 23 35 30 135 12 170 -15 27 -15 25
-21 -54z"/>
<path d="M4966 1253 c-3 -3 -6 -16 -6 -27 0 -12 -27 -50 -60 -86 -33 -36 -60
-70 -60 -77 0 -27 19 -21 46 15 16 20 45 55 66 77 25 26 38 48 38 66 0 28 -12
44 -24 32z"/>
<path d="M657 1158 c-9 -51 -19 -129 -22 -173 -4 -44 -16 -127 -27 -185 -11
-58 -24 -141 -29 -185 -21 -196 -35 -294 -41 -301 -5 -4 -8 -27 -8 -50 0 -24
-6 -61 -14 -81 -21 -60 -46 -148 -46 -166 0 -10 6 -17 14 -17 9 0 21 25 32 70
l18 70 42 0 c30 0 51 7 71 23 15 13 43 29 61 36 17 8 32 17 32 22 0 5 11 9 25
9 14 0 25 5 25 10 0 6 10 10 23 10 12 0 33 9 47 20 23 17 23 19 7 26 -17 6
-35 0 -89 -27 -10 -5 -24 -9 -31 -9 -8 0 -22 -9 -32 -20 -10 -11 -23 -20 -28
-20 -6 0 -25 -11 -43 -25 -38 -29 -100 -35 -90 -9 3 9 6 26 6 39 0 15 9 26 28
34 15 7 39 22 53 34 13 13 40 29 59 37 19 8 40 22 47 31 7 9 25 19 40 22 26 5
113 79 113 96 0 4 -5 12 -12 19 -9 9 -7 12 9 12 19 0 20 -4 16 -72 -3 -40 -9
-91 -15 -113 -5 -22 -14 -71 -19 -110 -5 -38 -13 -81 -18 -95 -5 -14 -12 -46
-16 -72 -5 -39 -3 -48 9 -48 10 0 17 13 21 38 3 20 10 54 16 74 5 21 14 66 19
100 4 35 13 81 19 103 11 43 15 174 5 199 -7 18 -59 22 -69 6 -3 -5 -16 -10
-28 -10 -13 0 -40 -9 -62 -20 -49 -25 -152 -28 -161 -5 -4 8 -11 12 -17 8 -7
-4 -8 0 -2 13 4 10 12 55 16 99 4 44 17 125 28 180 11 55 23 141 26 190 4 50
11 106 15 125 5 19 12 61 15 93 6 46 5 57 -7 57 -10 0 -19 -27 -31 -92z m213
-673 c0 -12 -76 -75 -90 -75 -9 0 -34 -13 -56 -30 -21 -16 -45 -30 -53 -30 -8
0 -34 -16 -58 -36 -24 -20 -47 -33 -51 -29 -4 4 -1 10 6 12 7 3 12 23 13 46 0
23 3 58 7 77 7 33 9 35 37 29 l30 -6 -26 -11 c-28 -11 -44 -38 -28 -47 5 -4
24 4 41 17 51 36 78 48 109 48 16 0 29 5 29 10 0 6 11 10 24 10 14 0 28 5 31
10 6 10 35 14 35 5z"/>
<path d="M5027 1147 c-13 -29 -40 -68 -60 -87 -21 -19 -37 -38 -37 -43 0 -12
-38 -62 -73 -98 -26 -26 -27 -30 -11 -36 12 -4 24 2 40 23 13 16 32 39 43 51
10 12 22 31 26 43 3 11 15 25 25 30 24 13 103 147 95 160 -12 20 -24 9 -48
-43z"/>
<path d="M5026 1038 c-3 -7 -6 -33 -9 -58 -3 -39 -12 -54 -60 -104 -31 -33
-54 -63 -51 -68 11 -17 30 -6 63 37 46 62 67 60 38 -2 -13 -27 -33 -64 -45
-83 -12 -19 -22 -39 -22 -43 0 -5 -7 -25 -16 -44 -13 -25 -14 -37 -6 -45 9 -9
17 1 32 38 12 27 26 58 32 69 68 118 104 222 70 201 -5 -3 -7 19 -4 48 3 33 0
56 -7 60 -6 4 -13 1 -15 -6z"/>
<path d="M5070 789 c-17 -35 -39 -80 -50 -99 -38 -68 -69 -145 -62 -152 13
-13 27 5 51 67 13 33 33 72 43 87 34 49 70 140 59 151 -6 6 -20 -12 -41 -54z"/>
<path d="M1706 833 c-3 -3 -6 -16 -6 -28 0 -11 -16 -36 -35 -55 -19 -19 -35
-40 -35 -47 0 -8 -7 -25 -16 -39 -9 -13 -13 -28 -9 -32 4 -4 10 -1 13 7 2 7
13 21 23 29 11 9 19 24 19 33 0 9 16 34 35 55 34 37 44 67 26 78 -4 3 -11 3
-15 -1z"/>
<path d="M1787 802 c-15 -16 -27 -31 -27 -35 0 -4 -18 -30 -40 -58 -22 -28
-40 -59 -40 -70 0 -28 17 -23 28 9 5 16 24 45 41 64 17 20 31 43 31 52 0 15 5
18 39 20 20 1 24 21 8 34 -11 9 -20 5 -40 -16z"/>
<path d="M3343 763 c-39 -37 -107 -104 -151 -148 -45 -44 -82 -88 -82 -97 0
-10 -7 -18 -15 -18 -8 0 -15 -4 -15 -10 0 -5 -4 -10 -9 -10 -4 0 -25 -16 -46
-36 -34 -31 -42 -35 -74 -29 -26 4 -32 3 -21 -4 13 -9 13 -11 -2 -11 -10 0
-18 5 -18 10 0 15 -27 12 -44 -5 -8 -8 -24 -15 -35 -15 -12 0 -21 -4 -21 -10
0 -5 -11 -10 -24 -10 -14 0 -28 -5 -31 -10 -3 -6 -17 -10 -30 -10 -13 0 -26
-4 -29 -9 -3 -4 -31 -11 -62 -14 -31 -3 -62 -11 -67 -16 -6 -6 -19 -11 -29
-11 -10 0 -26 -4 -36 -9 -9 -5 -30 -15 -46 -22 -29 -14 -29 -14 -6 -17 14 -2
26 1 28 7 5 14 65 14 79 0 15 -15 48 -7 48 11 0 8 14 17 35 21 19 4 36 12 38
18 2 6 12 11 22 11 10 0 22 4 25 10 3 6 23 10 43 10 l37 -1 -40 -35 c-21 -19
-51 -37 -65 -40 -14 -3 -34 -9 -45 -14 -11 -4 -33 -13 -48 -19 -15 -6 -47 -11
-70 -11 -24 0 -47 -4 -52 -9 -6 -5 -26 -11 -45 -13 -51 -4 -43 -23 13 -26 28
-2 47 1 47 7 0 6 21 11 49 11 28 0 53 5 56 10 3 6 26 10 51 10 24 0 44 5 44
10 0 6 20 10 45 10 25 0 45 5 45 10 0 6 16 10 35 10 19 0 35 5 35 10 0 6 14
10 30 10 17 0 30 -2 30 -5 0 -2 -16 -34 -36 -70 -20 -36 -33 -65 -30 -65 4 0
-1 -15 -11 -32 -9 -18 -23 -48 -29 -65 -11 -30 -10 -33 7 -33 11 0 22 8 25 18
17 49 37 82 51 82 11 0 14 -6 9 -25 -5 -19 -2 -25 9 -25 9 0 18 8 21 18 9 30
22 47 32 45 9 -2 75 92 77 109 0 3 10 18 23 32 12 15 22 32 22 39 0 19 20 36
35 31 7 -3 30 15 51 40 21 25 44 46 51 46 7 0 25 17 40 37 15 21 52 61 82 89
31 29 51 56 47 62 -7 12 47 72 64 72 5 0 17 12 27 28 10 15 26 35 37 45 15 14
17 20 7 30 -9 9 -21 3 -55 -33 -45 -48 -154 -145 -202 -182 -72 -53 -165 -155
-191 -208 -14 -30 -46 -81 -70 -112 -24 -31 -43 -61 -43 -66 0 -5 -7 -15 -15
-22 -24 -20 -18 5 9 37 36 44 49 74 38 85 -7 7 -16 0 -26 -21 -23 -43 -30 -39
-9 5 12 24 26 37 45 41 29 6 39 23 13 23 -19 0 -19 10 1 38 9 13 13 29 10 37
-2 7 2 19 10 25 11 10 14 9 14 -3 0 -10 6 -14 15 -11 8 4 15 14 15 23 0 9 9
23 20 31 11 8 20 20 20 26 0 11 56 74 65 74 2 0 42 29 90 65 47 36 90 65 95
65 5 0 11 8 14 18 3 9 20 23 36 31 30 13 37 40 9 32 -57 -15 -56 -16 -30 13
18 19 22 29 14 37 -8 8 -30 -8 -80 -58z m22 -43 c-10 -11 -22 -20 -28 -20 -5
0 1 9 14 20 31 25 37 25 14 0z m-105 -240 c-12 -17 -34 -37 -50 -45 -15 -8
-37 -27 -48 -42 -11 -15 -23 -25 -27 -21 -8 8 115 135 133 137 9 1 6 -9 -8
-29z m-277 -138 c-7 -18 -69 -42 -109 -42 -18 0 -36 -4 -39 -10 -3 -5 -16 -10
-28 -10 -20 0 -20 2 8 29 42 41 121 71 150 57 13 -6 20 -16 18 -24z"/>
<path d="M2063 783 c-12 -32 -53 -87 -96 -129 -68 -68 -147 -179 -203 -286
-13 -26 -37 -57 -53 -69 -17 -12 -27 -28 -24 -35 8 -22 33 -16 42 9 5 12 18
31 30 41 11 11 21 27 21 36 0 10 9 29 21 44 11 15 32 48 46 74 27 51 61 95
138 177 67 73 105 121 105 133 0 20 -20 23 -27 5z"/>
<path d="M1888 763 c-7 -16 -42 -62 -79 -103 -36 -41 -68 -85 -72 -98 -7 -28
15 -25 23 4 5 20 41 63 99 120 19 18 40 49 47 69 14 41 -1 48 -18 8z"/>
<path d="M5083 668 c-17 -23 -50 -92 -57 -123 -4 -16 -15 -38 -23 -47 -9 -10
-13 -25 -9 -35 7 -16 9 -15 27 7 10 14 23 41 29 60 5 20 16 44 24 55 15 20 15
20 16 0 0 -11 -6 -29 -14 -40 -7 -11 -16 -38 -21 -60 -9 -49 -9 -49 3 -53 6
-2 15 14 22 35 6 21 16 48 22 60 16 32 16 99 1 96 -16 -4 -17 9 -1 25 8 8 9
15 2 22 -8 8 -14 7 -21 -2z"/>
<path d="M950 650 c0 -11 7 -20 15 -20 8 0 15 9 15 20 0 11 -7 20 -15 20 -8 0
-15 -9 -15 -20z"/>
<path d="M1500 621 c0 -11 -5 -21 -11 -23 -6 -2 -14 -28 -16 -58 -5 -63 8 -55
31 20 8 25 17 53 21 63 5 12 2 17 -9 17 -9 0 -16 -8 -16 -19z"/>
<path d="M2080 580 c-142 -126 -220 -218 -220 -261 0 -37 16 -29 25 12 9 39
117 160 200 224 35 28 65 53 65 58 0 17 -28 4 -70 -33z"/>
<path d="M1633 564 c-13 -29 -3 -31 21 -5 13 14 14 20 4 24 -8 2 -19 -6 -25
-19z"/>
<path d="M960 560 c0 -11 2 -20 4 -20 2 0 6 9 9 20 3 11 1 20 -4 20 -5 0 -9
-9 -9 -20z"/>
<path d="M1600 491 c-13 -26 -13 -44 2 -39 14 5 30 58 17 58 -4 0 -13 -9 -19
-19z"/>
<path d="M1678 493 c-23 -26 -40 -63 -30 -63 5 0 21 18 36 40 26 40 22 55 -6
23z"/>
<path d="M3000 451 c0 -5 -12 -12 -27 -14 l-28 -4 26 -2 c15 0 32 6 39 14 9
10 9 15 1 15 -6 0 -11 -4 -11 -9z"/>
<path d="M1470 420 c-7 -17 -10 -33 -8 -36 3 -2 11 9 18 26 7 17 10 33 8 36
-3 2 -11 -9 -18 -26z"/>
<path d="M2050 401 c-25 -27 -69 -74 -99 -105 -30 -31 -51 -59 -48 -62 8 -8
207 195 207 211 0 14 -19 0 -60 -44z"/>
<path d="M5076 419 c-11 -32 -25 -132 -20 -140 11 -19 22 3 34 67 9 47 10 68
2 76 -8 8 -13 7 -16 -3z"/>
<path d="M1618 366 c-20 -15 -23 -26 -8 -26 5 0 14 9 20 20 12 23 11 24 -12 6z"/>
<path d="M1476 344 c-8 -21 -6 -23 17 -15 17 6 17 9 4 19 -12 10 -16 9 -21 -4z"/>
<path d="M2051 323 c-31 -37 -38 -53 -23 -53 8 0 72 75 72 84 0 16 -22 2 -49
-31z"/>
<path d="M2060 277 c-14 -7 -26 -20 -28 -29 -3 -16 -1 -16 26 -2 17 8 33 21
36 29 7 18 -1 19 -34 2z"/>
<path d="M758 165 c-21 -19 -46 -35 -57 -35 -10 0 -24 -7 -31 -15 -7 -8 -31
-20 -54 -27 -51 -15 -90 -38 -79 -49 9 -9 99 20 136 44 15 9 31 17 38 17 27 0
114 74 104 89 -10 17 -17 13 -57 -24z"/>
<path d="M2244 115 c-3 -8 1 -29 10 -46 9 -18 16 -40 16 -51 0 -10 7 -18 15
-18 21 0 19 38 -5 88 -22 46 -28 50 -36 27z"/>
<path d="M2177 83 c-17 -27 24 -83 61 -83 l24 0 -28 28 c-16 15 -34 36 -40 47
-7 12 -13 15 -17 8z"/>
<path d="M5080 69 c0 -15 9 -37 20 -50 l19 -24 1 26 c0 15 -9 37 -20 50 l-19
24 -1 -26z"/>
<path d="M792 64 c-6 -11 -32 -25 -59 -32 -83 -23 -94 -31 -43 -31 82 0 153
40 123 70 -8 8 -14 6 -21 -7z"/>
<path d="M1886 53 c-12 -13 -6 -53 9 -53 9 0 15 9 15 24 0 26 -12 40 -24 29z"/>
<path d="M2106 53 c-12 -13 -6 -53 9 -53 9 0 15 9 15 24 0 26 -12 40 -24 29z"/>
<path d="M1956 33 c-12 -12 -6 -33 9 -33 8 0 15 6 15 14 0 17 -14 28 -24 19z"/>
</g>
</svg>
